<?xml version="1.0" encoding="UTF-8"?>
<svg version="1.1" xmlns="http://www.w3.org/2000/svg" width="256" height="256">
<path d="M0 0 C3.08738052 1.76444421 3.08738052 1.76444421 6.1953125 2.70703125 C6.1953125 3.36703125 6.1953125 4.02703125 6.1953125 4.70703125 C6.8553125 4.70703125 7.5153125 4.70703125 8.1953125 4.70703125 C8.1953125 5.36703125 8.1953125 6.02703125 8.1953125 6.70703125 C8.77796875 6.97515625 9.360625 7.24328125 9.9609375 7.51953125 C23.4318165 14.67887953 32.39602474 30.39949612 37.515625 44.2890625 C38.56252108 47.74381958 39.42673538 51.18038313 40.1953125 54.70703125 C40.4428125 55.79113281 40.6903125 56.87523438 40.9453125 57.9921875 C44.31101155 75.97764182 40.5260737 95.97414192 31.1953125 111.70703125 C30.80085937 112.38507813 30.40640625 113.063125 30 113.76171875 C21.0159931 128.18746698 7.08800532 139.89685077 -4.93261719 151.73901367 C-7.12098759 153.89708282 -9.30300644 156.06141936 -11.484375 158.2265625 C-12.14589569 158.87462357 -12.80741638 159.52268463 -13.48898315 160.19038391 C-17.43361519 164.11368451 -20.68677206 168.09734549 -23.8046875 172.70703125 C-24.5059375 173.67640625 -25.2071875 174.64578125 -25.9296875 175.64453125 C-27.79975054 178.69896755 -28.83563361 181.4531129 -29.80078125 184.875 C-31.31110119 187.63118698 -32.96870268 188.35808252 -35.8046875 189.70703125 C-38.67718612 189.98737343 -41.32767044 190.10746854 -44.1965332 190.0793457 C-45.44654869 190.0848217 -45.44654869 190.0848217 -46.72181702 190.09040833 C-49.47490903 190.09850659 -52.22741047 190.08489701 -54.98046875 190.0703125 C-56.90797424 190.06979327 -58.83548026 190.07031341 -60.76298523 190.07182312 C-64.8089486 190.07173339 -68.85471277 190.06131299 -72.90063477 190.04321289 C-78.04328322 190.02069329 -83.1856365 190.01995125 -88.3283205 190.02673054 C-92.31534871 190.03010411 -96.30231185 190.02337465 -100.28932762 190.0136013 C-102.18241216 190.0097944 -104.07550401 190.008582 -105.96859169 190.01018715 C-128.90485954 190.01343468 -152.88305249 188.35873988 -170.7421875 172.01953125 C-171.763125 170.87484375 -171.763125 170.87484375 -172.8046875 169.70703125 C-173.5884375 169.09988281 -174.3721875 168.49273437 -175.1796875 167.8671875 C-181.05242736 163.03441199 -185.96259564 156.27060484 -189.8046875 149.70703125 C-189.8046875 148.71703125 -189.8046875 147.72703125 -189.8046875 146.70703125 C-190.4646875 146.70703125 -191.1246875 146.70703125 -191.8046875 146.70703125 C-200.70264 124.81901974 -204.63578462 102.42634948 -195.8046875 79.70703125 C-192.50322975 72.14838379 -189.0306097 65.1155436 -183.8046875 58.70703125 C-183.3096875 57.22203125 -183.3096875 57.22203125 -182.8046875 55.70703125 C-179.71396036 52.35874351 -176.40122736 49.49434964 -172.8046875 46.70703125 C-170.35883431 44.77310082 -168.00938478 42.91172853 -165.8046875 40.70703125 C-151.03062567 30.48805542 -134.08157251 26.22824238 -116.28857422 26.34863281 C-112.13242672 26.27726023 -110.36049294 26.15214332 -107.01953125 23.4765625 C-106.28863281 22.56261719 -105.55773437 21.64867188 -104.8046875 20.70703125 C-104.07507813 19.89363281 -103.34546875 19.08023438 -102.59375 18.2421875 C-101.87960938 17.42621094 -101.16546875 16.61023438 -100.4296875 15.76953125 C-94.63070114 9.34414047 -89.02116087 4.67059341 -81.5546875 0.33203125 C-80.93956299 -0.02648926 -80.32443848 -0.38500977 -79.69067383 -0.75439453 C-76.84924272 -2.35296798 -75.11821915 -3.29296875 -71.8046875 -3.29296875 C-71.4746875 -3.95296875 -71.1446875 -4.61296875 -70.8046875 -5.29296875 C-46.77455855 -14.19301651 -22.31525815 -12.07662822 0 0 Z " fill="#03C5F1" transform="translate(207.8046875,34.29296875)"/>
<path d="M0 0 C3.08738052 1.76444421 3.08738052 1.76444421 6.1953125 2.70703125 C6.1953125 3.36703125 6.1953125 4.02703125 6.1953125 4.70703125 C6.8553125 4.70703125 7.5153125 4.70703125 8.1953125 4.70703125 C8.1953125 5.36703125 8.1953125 6.02703125 8.1953125 6.70703125 C8.77796875 6.97515625 9.360625 7.24328125 9.9609375 7.51953125 C23.4318165 14.67887953 32.39602474 30.39949612 37.515625 44.2890625 C38.56252108 47.74381958 39.42673538 51.18038313 40.1953125 54.70703125 C40.4428125 55.79113281 40.6903125 56.87523438 40.9453125 57.9921875 C44.31101155 75.97764182 40.5260737 95.97414192 31.1953125 111.70703125 C30.80085937 112.38507813 30.40640625 113.063125 30 113.76171875 C21.0159931 128.18746698 7.08800532 139.89685077 -4.93261719 151.73901367 C-7.12098759 153.89708282 -9.30300644 156.06141936 -11.484375 158.2265625 C-12.14589569 158.87462357 -12.80741638 159.52268463 -13.48898315 160.19038391 C-17.43378028 164.1138487 -20.68793733 168.09615449 -23.8046875 172.70703125 C-24.5265625 173.71765625 -25.2484375 174.72828125 -25.9921875 175.76953125 C-27.80259379 178.703638 -28.86058743 181.402681 -29.8046875 184.70703125 C-36.95718982 173.97827776 -37.8046875 162.33749811 -37.8046875 149.70703125 C-28.8946875 149.70703125 -19.9846875 149.70703125 -10.8046875 149.70703125 C-10.67379216 140.2444089 -10.67379216 140.2444089 -14.54296875 137.015625 C-16.26301226 136.00597593 -16.26301226 136.00597593 -18.1171875 135.14453125 C-19.05038818 134.65243164 -19.05038818 134.65243164 -20.00244141 134.15039062 C-25.76382354 131.31284776 -31.39422964 130.51917901 -37.8046875 130.70703125 C-37.8046875 128.06703125 -37.8046875 125.42703125 -37.8046875 122.70703125 C-34.5046875 122.70703125 -31.2046875 122.70703125 -27.8046875 122.70703125 C-27.84273587 114.3008641 -27.90208385 105.89523187 -27.98859024 97.4894371 C-28.02809097 93.58620274 -28.0602664 89.68319484 -28.07568359 85.77978516 C-28.09083358 82.01234715 -28.12524823 78.24553162 -28.17299652 74.47837067 C-28.1878277 73.04153099 -28.19572952 71.60460244 -28.19657135 70.16768646 C-28.19893714 68.15432878 -28.22827815 66.14105757 -28.25878906 64.12792969 C-28.26767151 62.98209412 -28.27655396 61.83625854 -28.28570557 60.65570068 C-28.91436454 57.08388558 -30.00368864 55.93240959 -32.8046875 53.70703125 C-35.94070063 52.13902468 -39.29774526 52.52718489 -42.74267578 52.50170898 C-43.56226776 52.49180939 -44.38185974 52.48190979 -45.22628784 52.47171021 C-47.94249558 52.44005592 -50.65872082 52.41532228 -53.375 52.390625 C-55.255447 52.37005886 -57.13588933 52.34906248 -59.0163269 52.32765198 C-63.97125481 52.27239615 -68.92622467 52.22300237 -73.88122559 52.17480469 C-78.93517807 52.12461527 -83.98906944 52.06891586 -89.04296875 52.01367188 C-98.96348949 51.90604737 -108.88406324 51.80461194 -118.8046875 51.70703125 C-117.78375877 44.04496027 -117.78375877 44.04496027 -115.95703125 40.375 C-115.59931641 39.63958984 -115.24160156 38.90417969 -114.87304688 38.14648438 C-114.49986328 37.40333984 -114.12667969 36.66019531 -113.7421875 35.89453125 C-112.99801212 34.38964327 -112.25696407 32.88320346 -111.51953125 31.375 C-111.19073975 30.71781982 -110.86194824 30.06063965 -110.52319336 29.38354492 C-109.67338107 27.70464833 -109.67338107 27.70464833 -109.8046875 25.70703125 C-108.7169029 24.58415682 -107.61908008 23.47016949 -106.48828125 22.390625 C-104.3666111 20.26895485 -102.41142725 18.02227814 -100.4296875 15.76953125 C-94.63070114 9.34414047 -89.02116087 4.67059341 -81.5546875 0.33203125 C-80.93956299 -0.02648926 -80.32443848 -0.38500977 -79.69067383 -0.75439453 C-76.84924272 -2.35296798 -75.11821915 -3.29296875 -71.8046875 -3.29296875 C-71.4746875 -3.95296875 -71.1446875 -4.61296875 -70.8046875 -5.29296875 C-46.77455855 -14.19301651 -22.31525815 -12.07662822 0 0 Z " fill="#AFDC03" transform="translate(207.8046875,34.29296875)"/>
<path d="M0 0 C0.91884979 -0.0049649 1.83769958 -0.00992981 2.78439331 -0.01504517 C5.83372742 -0.02968779 8.88300951 -0.03647254 11.93237305 -0.04199219 C14.04745994 -0.04774223 16.16254681 -0.05349998 18.27763367 -0.05926514 C22.71715539 -0.06978132 27.15665897 -0.07561984 31.59619141 -0.07910156 C37.28595695 -0.08458538 42.97548307 -0.10860852 48.66517353 -0.13707352 C53.03605347 -0.15569475 57.40687572 -0.16090524 61.77779198 -0.16243744 C63.87536108 -0.16546602 65.97292912 -0.17350143 68.07045937 -0.18662262 C71.00549153 -0.203671 73.93993845 -0.20180565 76.875 -0.1953125 C77.74220169 -0.20452728 78.60940338 -0.21374207 79.50288391 -0.22323608 C84.19720843 -0.19069219 87.34259901 0.07800121 91.1315918 3.16113281 C93.5086182 6.72667241 93.37500103 8.23984642 93.35864258 12.46850586 C93.35840088 13.78782104 93.35815918 15.10713623 93.35791016 16.46643066 C93.34783906 17.86857289 93.3375059 19.27071325 93.3269043 20.67285156 C93.32489014 21.94761353 93.32287598 23.22237549 93.32080078 24.5357666 C93.310321 29.3067585 93.28239853 34.0776992 93.2565918 38.84863281 C93.2153418 49.51175781 93.1740918 60.17488281 93.1315918 71.16113281 C57.4915918 71.16113281 21.8515918 71.16113281 -14.8684082 71.16113281 C-14.9921582 55.22832031 -14.9921582 55.22832031 -15.1184082 38.97363281 C-15.15482422 35.6256958 -15.19124023 32.27775879 -15.22875977 28.82836914 C-15.24044212 26.17497398 -15.25063501 23.52157165 -15.2590332 20.86816406 C-15.26948669 20.18211594 -15.27994019 19.49606781 -15.29071045 18.78923035 C-15.32009803 16.75819072 -15.32176538 14.72680873 -15.32250977 12.69555664 C-15.33583344 10.9801342 -15.33583344 10.9801342 -15.34942627 9.23005676 C-14.76333217 5.49074147 -13.48184373 3.84621699 -10.8684082 1.16113281 C-7.50468832 -0.52072713 -3.70005931 0.00473636 0 0 Z " fill="#5ED171" transform="translate(86.868408203125,85.8388671875)"/>
<path d="M0 0 C0.91884979 -0.0049649 1.83769958 -0.00992981 2.78439331 -0.01504517 C5.83372742 -0.02968779 8.88300951 -0.03647254 11.93237305 -0.04199219 C14.04745994 -0.04774223 16.16254681 -0.05349998 18.27763367 -0.05926514 C22.71715539 -0.06978132 27.15665897 -0.07561984 31.59619141 -0.07910156 C37.28595695 -0.08458538 42.97548307 -0.10860852 48.66517353 -0.13707352 C53.03605347 -0.15569475 57.40687572 -0.16090524 61.77779198 -0.16243744 C63.87536108 -0.16546602 65.97292912 -0.17350143 68.07045937 -0.18662262 C71.00549153 -0.203671 73.93993845 -0.20180565 76.875 -0.1953125 C77.74220169 -0.20452728 78.60940338 -0.21374207 79.50288391 -0.22323608 C84.19720843 -0.19069219 87.34259901 0.07800121 91.1315918 3.16113281 C93.5086182 6.72667241 93.37500103 8.23984642 93.35864258 12.46850586 C93.35840088 13.78782104 93.35815918 15.10713623 93.35791016 16.46643066 C93.34783906 17.86857289 93.3375059 19.27071325 93.3269043 20.67285156 C93.32489014 21.94761353 93.32287598 23.22237549 93.32080078 24.5357666 C93.310321 29.3067585 93.28239853 34.0776992 93.2565918 38.84863281 C93.2153418 49.51175781 93.1740918 60.17488281 93.1315918 71.16113281 C57.4915918 71.16113281 21.8515918 71.16113281 -14.8684082 71.16113281 C-14.9921582 55.22832031 -14.9921582 55.22832031 -15.1184082 38.97363281 C-15.15482422 35.6256958 -15.19124023 32.27775879 -15.22875977 28.82836914 C-15.24044212 26.17497398 -15.25063501 23.52157165 -15.2590332 20.86816406 C-15.26948669 20.18211594 -15.27994019 19.49606781 -15.29071045 18.78923035 C-15.32009803 16.75819072 -15.32176538 14.72680873 -15.32250977 12.69555664 C-15.33583344 10.9801342 -15.33583344 10.9801342 -15.34942627 9.23005676 C-14.76333217 5.49074147 -13.48184373 3.84621699 -10.8684082 1.16113281 C-7.50468832 -0.52072713 -3.70005931 0.00473636 0 0 Z M-4.8684082 10.16113281 C-4.8684082 26.99113281 -4.8684082 43.82113281 -4.8684082 61.16113281 C24.1715918 61.16113281 53.2115918 61.16113281 83.1315918 61.16113281 C83.1315918 44.33113281 83.1315918 27.50113281 83.1315918 10.16113281 C54.0915918 10.16113281 25.0515918 10.16113281 -4.8684082 10.16113281 Z " fill="#FCFEFC" transform="translate(86.868408203125,85.8388671875)"/>
<path d="M0 0 C1.38518578 -0.02157166 1.38518578 -0.02157166 2.7983551 -0.0435791 C4.32314484 -0.05939529 4.32314484 -0.05939529 5.8787384 -0.07553101 C6.94733597 -0.09013367 8.01593353 -0.10473633 9.11691284 -0.11978149 C19.0122952 -0.2461696 28.90849328 -0.31463733 38.80451488 -0.36762428 C45.44876311 -0.40329998 52.09145551 -0.45638188 58.73518372 -0.55307007 C65.1632047 -0.64633541 71.59014901 -0.69461953 78.01880836 -0.71201706 C80.45991714 -0.72604139 82.90099165 -0.75552022 85.34171104 -0.80131912 C107.3840443 -1.19446491 107.3840443 -1.19446491 116.72688293 4.11294556 C117.34345607 4.45413107 117.9600292 4.79531658 118.59528637 5.14684105 C120.23757935 6.26763916 120.23757935 6.26763916 122.60847473 9.18081665 C122.60847473 12.48081665 122.60847473 15.78081665 122.60847473 19.18081665 C75.74847473 19.18081665 28.88847473 19.18081665 -19.39152527 19.18081665 C-19.39152527 15.88081665 -19.39152527 12.58081665 -19.39152527 9.18081665 C-17.07137669 6.92929218 -15.79282343 5.95082262 -13.01652527 4.61831665 C-12.41324402 4.29025024 -11.80996277 3.96218384 -11.18840027 3.62417603 C-9.60873285 2.7729108 -8.00145351 1.97336487 -6.39152527 1.18081665 C-4.04620815 0.00815809 -2.61553483 0.03500241 0 0 Z " fill="#FEFEFE" transform="translate(74.39152526855469,164.81918334960938)"/>
<path d="M0 0 C5.62275956 2.30246569 9.08686295 5.63982784 12 11 C13.84152373 16.52457118 13.8169855 21.91005661 11.375 27.25 C9.00412205 31.46209168 5.86760047 35.03390798 1.15136719 36.62280273 C-1.40995157 37.07187644 -3.82105964 37.11210522 -6.421875 37.09765625 C-7.44667969 37.09443359 -8.47148438 37.09121094 -9.52734375 37.08789062 C-10.59082031 37.07951172 -11.65429688 37.07113281 -12.75 37.0625 C-13.82894531 37.05798828 -14.90789062 37.05347656 -16.01953125 37.04882812 C-18.67974383 37.03705727 -21.33984365 37.02061399 -24 37 C-23.84144531 36.19433594 -23.68289062 35.38867188 -23.51953125 34.55859375 C-23.12775517 31.87507491 -22.90226319 29.41608298 -22.82421875 26.72265625 C-22.80037109 25.96146484 -22.77652344 25.20027344 -22.75195312 24.41601562 C-22.70909888 22.8511862 -22.67778561 21.28599675 -22.65820312 19.72070312 C-22.4521191 14.05099611 -21.22147095 10.69227192 -18 6 C-12.45009831 0.86634093 -7.52214788 -1.19810894 0 0 Z " fill="#FDFEFD" transform="translate(131,103)"/>
<path d="M0 0 C0.66 0 1.32 0 2 0 C2 0.66 2 1.32 2 2 C2.69222656 2.07476562 3.38445312 2.14953125 4.09765625 2.2265625 C21.35346861 4.54552543 36.76955594 12.61856281 49 25 C49 25.33 49 25.66 49 26 C29.86 26 10.72 26 -9 26 C-7.87577062 18.13039436 -7.87577062 18.13039436 -6.15234375 14.66796875 C-5.61577148 13.56485352 -5.61577148 13.56485352 -5.06835938 12.43945312 C-4.69517578 11.69630859 -4.32199219 10.95316406 -3.9375 10.1875 C-3.19332462 8.68261202 -2.45227657 7.17617221 -1.71484375 5.66796875 C-1.38605225 5.01078857 -1.05726074 4.3536084 -0.71850586 3.67651367 C0.13130643 1.99761708 0.13130643 1.99761708 0 0 Z " fill="#7BD549" transform="translate(98,60)"/>
<path d="M0 0 C12.54 0 25.08 0 38 0 C38.2475 2.908125 38.495 5.81625 38.75 8.8125 C39.39459661 15.55866554 40.48154521 21.4627874 43.109375 27.7578125 C44.34592624 30.87088449 44.78258209 33.6662587 45 37 C44 38 44 38 40.90234375 38.50390625 C35.33986535 37.78562826 33.22463337 34.9656109 29.5625 30.9375 C28.23613559 29.54259464 26.90803271 28.14934008 25.578125 26.7578125 C24.95357422 26.09555664 24.32902344 25.43330078 23.68554688 24.75097656 C21.82117215 22.8142304 19.87454273 21.03664498 17.8125 19.3125 C14.25951431 16.30069756 10.93646597 13.08479441 7.625 9.8125 C7.10010986 9.30050049 6.57521973 8.78850098 6.03442383 8.26098633 C3.32849022 5.56212128 1.73762172 3.47524343 0 0 Z " fill="#25CAC1" transform="translate(132,184)"/>
<path d="M0 0 C21.45 0 42.9 0 65 0 C65 2.64 65 5.28 65 8 C32.33 8 -0.34 8 -34 8 C-34 7.67 -34 7.34 -34 7 C-21.46 6.67 -8.92 6.34 4 6 C2.68 4.02 1.36 2.04 0 0 Z " fill="#57D29C" transform="translate(105,157)"/>
<path d="M0 0 C1.32 0 2.64 0 4 0 C4.02578125 1.24652344 4.0515625 2.49304688 4.078125 3.77734375 C4.53388473 19.20305755 6.22989626 33.10429352 13.828125 46.77734375 C15 49 15 49 15 51 C10.05 51 5.1 51 0 51 C0 34.17 0 17.34 0 0 Z " fill="#00C4F0" transform="translate(82,96)"/>
<path d="M0 0 C4.62 0 9.24 0 14 0 C14 10.89 14 21.78 14 33 C13.67 33 13.34 33 13 33 C12.8040625 32.1028125 12.608125 31.205625 12.40625 30.28125 C9.94624574 20.01709429 5.99508509 11.27005494 1 2 C0.67 1.34 0.34 0.68 0 0 Z " fill="#AEDC02" transform="translate(156,96)"/>
<path d="M0 0 C1.23435791 0.0007251 2.46871582 0.0014502 3.74047852 0.00219727 C4.40725113 -0.00021469 5.07402374 -0.00262665 5.76100159 -0.00511169 C7.16543549 -0.00413616 8.56990923 0.00918797 9.97412109 0.03417969 C12.11047675 0.06846057 14.24268218 0.05483849 16.37915039 0.03540039 C17.74961052 0.04230112 19.12006006 0.05197558 20.49047852 0.06469727 C21.72596436 0.07557373 22.9614502 0.0864502 24.234375 0.09765625 C28.27262706 0.72251148 30.50707276 2.10784668 33.68188477 4.63110352 C33.68188477 4.96110352 33.68188477 5.29110352 33.68188477 5.63110352 C19.82188477 5.63110352 5.96188477 5.63110352 -8.31811523 5.63110352 C-3.31811523 0.63110352 -3.31811523 0.63110352 0 0 Z " fill="#5AD181" transform="translate(113.318115234375,171.368896484375)"/>
<path d="M0 0 C0.84304687 0.0309375 1.68609375 0.061875 2.5546875 0.09375 C3.40289062 0.1040625 4.25109375 0.114375 5.125 0.125 C7.83208655 0.67559387 8.78703499 1.40354665 10.4296875 3.59375 C10.4296875 4.25375 10.4296875 4.91375 10.4296875 5.59375 C4.4896875 5.59375 -1.4503125 5.59375 -7.5703125 5.59375 C-2.5703125 0.59375 -2.5703125 0.59375 0 0 Z " fill="#11C8EE" transform="translate(112.5703125,171.40625)"/>
<path d="" fill="#DAEF8A" transform="translate(0,0)"/>
<path d="" fill="#CBE85A" transform="translate(0,0)"/>
</svg>
