<?xml version="1.0" encoding="UTF-8"?>
<svg version="1.1" xmlns="http://www.w3.org/2000/svg" width="253" height="210">
<path d="M0 0 C83.49 0 166.98 0 253 0 C253 69.3 253 138.6 253 210 C169.51 210 86.02 210 0 210 C0 140.7 0 71.4 0 0 Z " fill="#AACE36" transform="translate(0,0)"/>
<path d="M0 0 C83.49 0 166.98 0 253 0 C253 69.3 253 138.6 253 210 C169.51 210 86.02 210 0 210 C0 140.7 0 71.4 0 0 Z M101.14453125 33.43359375 C98.9238721 35.99733131 98.9238721 35.99733131 97 39 C94.9597168 39.38476562 94.9597168 39.38476562 92.44921875 39.40625 C91.52963379 39.42574707 90.61004883 39.44524414 89.66259766 39.46533203 C88.68081543 39.47677246 87.6990332 39.48821289 86.6875 39.5 C62.80180498 40.23334958 41.65491545 49.01146024 25.0859375 66.53515625 C8.86591139 85.70151669 2.05258187 107.12638803 4 132 C4.56282584 136.78568478 5.66399636 141.37314758 7 146 C7.40025391 147.5159375 7.40025391 147.5159375 7.80859375 149.0625 C13.6285339 168.92789573 29.10468846 186.69524684 47.10546875 196.5390625 C60.83830065 203.47034338 75.68925271 206.13962209 90.9987793 206.16113281 C91.85998383 206.16609772 92.72118835 206.17106262 93.60848999 206.17617798 C96.43040794 206.19067201 99.25226985 206.19757687 102.07421875 206.203125 C103.04253946 206.20595238 104.01086018 206.20877975 105.00852394 206.21169281 C110.12360529 206.22662658 115.2386588 206.2358952 120.35375977 206.24023438 C125.63307286 206.24573876 130.91213062 206.26982455 136.19136333 206.29820633 C140.25855768 206.31682095 144.32569001 206.32203748 148.39292336 206.32357025 C150.3397748 206.32659534 152.2866252 206.334619 154.23343468 206.34775543 C156.95229113 206.36480601 159.67051611 206.36293919 162.3894043 206.35644531 C163.19107529 206.3656601 163.99274628 206.37487488 164.81871033 206.3843689 C169.38145816 206.35022269 172.39940027 205.88607901 176 203 C177.3503013 200.45020197 177.3503013 200.45020197 178.25 197.5 C184.45300505 181.53417697 200.26904623 169.60535474 212.22827148 157.88818359 C214.82679446 155.33835444 217.41569193 152.77903648 220.00390625 150.21875 C220.78745987 149.45695435 221.57101349 148.69515869 222.37831116 147.91027832 C230.02630657 140.33031635 236.51863616 131.88679588 241.25 122.1875 C241.71792969 121.29321289 241.71792969 121.29321289 242.1953125 120.38085938 C247.94874116 108.81456581 249.65203582 97.24018308 249.5 84.4375 C249.51546875 83.13103516 249.5309375 81.82457031 249.546875 80.47851562 C249.49985163 68.68152715 246.67885116 58.34269731 241.3125 47.875 C240.9721875 47.2046875 240.631875 46.534375 240.28125 45.84375 C236.9657303 39.55029078 232.83306147 34.21663777 228 29 C227.34128906 28.27296875 226.68257812 27.5459375 226.00390625 26.796875 C212.1786585 12.22055746 193.26377414 3.50711893 173.28515625 2.62109375 C143.61805817 1.87204534 120.74814933 11.13891656 101.14453125 33.43359375 Z " fill="#FEFEFE" transform="translate(0,0)"/>
<path d="M0 0 C1.50626953 0.01353516 1.50626953 0.01353516 3.04296875 0.02734375 C5.48724126 0.05062254 7.93098408 0.08331513 10.375 0.125 C10.11807373 0.62201416 9.86114746 1.11902832 9.59643555 1.63110352 C-0.76274052 21.90412532 -2.10482938 38.54349106 -1.625 61.125 C-4.8388736 57.9744498 -7.61299718 54.65544017 -10.3125 51.0625 C-17.41899827 40.2845913 -17.41899827 40.2845913 -26.625 32.125 C-32.50781936 31.41417328 -32.50781936 31.41417328 -37.6875 33.6875 C-39.10426166 37.37108031 -39.31943299 39.14779289 -38.625 43.125 C-36.31758396 47.07324522 -33.48272926 50.56306083 -30.625 54.125 C-29.79389169 55.18618543 -28.96449928 56.24871669 -28.13671875 57.3125 C-26.33976855 59.61664572 -24.53286194 61.91246929 -22.71875 64.203125 C-18.48586029 69.55550265 -14.31186508 74.95383412 -10.13232422 80.34790039 C-9.5601416 81.08516357 -8.98795898 81.82242676 -8.3984375 82.58203125 C-7.63152588 83.5716687 -7.63152588 83.5716687 -6.84912109 84.58129883 C-5.71073433 86.0774992 -5.71073433 86.0774992 -4.625 87.125 C-4.51826894 88.57686576 -4.47880751 90.03376402 -4.46728516 91.48950195 C-4.45702301 92.417491 -4.44676086 93.34548004 -4.43618774 94.30158997 C-4.42888641 95.31194809 -4.42158508 96.32230621 -4.4140625 97.36328125 C-4.38599131 99.48373164 -4.35732683 101.60417425 -4.328125 103.72460938 C-4.28685131 107.08227298 -4.24998202 110.43979164 -4.22363281 113.79760742 C-4.19605595 117.02814135 -4.15017826 120.25800468 -4.1015625 123.48828125 C-4.09830963 124.49256668 -4.09505676 125.49685211 -4.09170532 126.53157043 C-4.07513885 127.46901596 -4.05857239 128.40646149 -4.04150391 129.37231445 C-4.03341705 130.19536575 -4.0253302 131.01841705 -4.01699829 131.8664093 C-3.53120577 134.66541762 -2.54758957 136.05960408 -0.625 138.125 C1.731528 138.83073579 1.731528 138.83073579 4.3125 138.75 C5.59447266 138.80027344 5.59447266 138.80027344 6.90234375 138.8515625 C9.62690297 138.29947291 9.62690297 138.29947291 11.49145508 135.59472656 C13.67296735 131.57610669 13.97691782 128.34153558 13.984375 123.8828125 C14.00091125 123.11444061 14.01744751 122.34606873 14.03448486 121.55441284 C14.08275935 119.11952561 14.10428871 116.68526189 14.125 114.25 C14.15317708 112.59111481 14.18310694 110.93225841 14.21484375 109.2734375 C14.28851198 105.22400973 14.33821134 101.17492391 14.375 97.125 C16.375 98.5 16.375 98.5 18.375 100.125 C18.375 100.785 18.375 101.445 18.375 102.125 C19.035 102.125 19.695 102.125 20.375 102.125 C20.375 102.785 20.375 103.445 20.375 104.125 C21.035 104.125 21.695 104.125 22.375 104.125 C23.73676922 105.76851457 25.06462066 107.44022656 26.375 109.125 C28.0204378 110.81262851 29.68788577 112.4790349 31.375 114.125 C32.179375 114.95 32.98375 115.775 33.8125 116.625 C36.3824975 119.19753019 36.3824975 119.19753019 39.375 121.625 C42.22299547 123.99832956 44.77169538 126.48853998 47.375 129.125 C48.18686768 129.94210449 48.99873535 130.75920898 49.83520508 131.60107422 C50.67978271 132.4520166 51.52436035 133.30295898 52.39453125 134.1796875 C53.83334458 135.62588274 55.27264481 137.07159145 56.7121582 138.51708984 C57.69125767 139.501212 58.66945695 140.48623062 59.64672852 141.47216797 C64.87715911 146.74754413 70.12814916 151.94472278 75.79248047 156.7590332 C77.75283316 158.45113029 79.54467384 160.29467384 81.375 162.125 C82.365 162.785 83.355 163.445 84.375 164.125 C84.375 164.785 84.375 165.445 84.375 166.125 C73.01264885 166.1715562 61.65032079 166.20698668 50.2878933 166.22862434 C45.01057923 166.23901481 39.73333092 166.25308644 34.45605469 166.27587891 C29.35318998 166.29777752 24.25038812 166.30960414 19.14748001 166.31475449 C17.2108626 166.31841993 15.27424822 166.32557662 13.33765793 166.33646011 C-10.15920807 166.46313259 -32.91840084 163.84885402 -51.625 148.125 C-52.79289062 147.19107422 -52.79289062 147.19107422 -53.984375 146.23828125 C-69.87385322 132.89013262 -80.44152324 112.77890777 -82.625 92.125 C-84.30543379 68.05916739 -78.72311734 46.88366438 -62.7734375 28.484375 C-62.06445312 27.70578125 -61.35546875 26.9271875 -60.625 26.125 C-60.03976563 25.47015625 -59.45453125 24.8153125 -58.8515625 24.140625 C-43.80493702 8.17566087 -21.61896415 -0.37522902 0 0 Z " fill="#1FB8DE" transform="translate(86.625,39.875)"/>
<path d="M0 0 C7.02821818 1.48673846 11.21538342 9.0903944 15.234375 14.47265625 C16.33529294 15.89184904 17.43947693 17.30851411 18.546875 18.72265625 C20.66051614 21.43195989 22.75437796 24.15465326 24.828125 26.89453125 C25.27760498 27.48588867 25.72708496 28.07724609 26.19018555 28.68652344 C27.08289838 29.86181354 27.97247706 31.03949197 28.85864258 32.21972656 C31.12964634 35.31731577 31.12964634 35.31731577 34.234375 37.47265625 C34.72164062 36.81523438 35.20890625 36.1578125 35.7109375 35.48046875 C40.54879326 28.98894593 45.45979947 22.55727087 50.421875 16.16015625 C51.00340332 15.40814941 51.58493164 14.65614258 52.18408203 13.88134766 C53.85400617 11.73403116 55.54016302 9.60084367 57.234375 7.47265625 C57.76885254 6.78864746 58.30333008 6.10463867 58.85400391 5.39990234 C59.36753418 4.7652002 59.88106445 4.13049805 60.41015625 3.4765625 C60.85915283 2.91396729 61.30814941 2.35137207 61.77075195 1.77172852 C64.01600099 -0.22109386 66.19386378 -0.28601468 69.109375 -0.26171875 C74.77037186 1.69465517 78.47850655 6.77417802 81.921875 11.41015625 C82.78315743 12.5552119 83.64516394 13.6997232 84.5078125 14.84375 C84.95092773 15.43526855 85.39404297 16.02678711 85.85058594 16.63623047 C88.21555794 19.77478365 90.62779647 22.87572446 93.046875 25.97265625 C93.7123938 26.83491821 93.7123938 26.83491821 94.39135742 27.71459961 C97.13317634 31.22464272 100.02428453 34.38359253 103.234375 37.47265625 C109.83822825 29.12189192 116.36952018 20.7204177 122.81713867 12.24829102 C130.89507797 1.64230477 130.89507797 1.64230477 133.234375 0.47265625 C137.41581511 0.07818077 139.54383548 0.02230439 143.109375 2.34765625 C145.48710442 4.72538567 146.11123805 5.75142557 146.671875 9.03515625 C145.57409707 17.66055427 137.40626369 25.18064155 132.11328125 31.83984375 C129.34996212 35.31750929 126.62777445 38.82519592 123.921875 42.34765625 C123.16261719 43.33507812 122.40335938 44.3225 121.62109375 45.33984375 C120.83347656 46.37367187 120.04585937 47.4075 119.234375 48.47265625 C118.73163055 49.02481308 118.22888611 49.57696991 117.71090698 50.14585876 C112.88374446 55.75133079 112.42086205 60.12467561 112.60546875 67.359375 C112.60362076 68.37941116 112.60177277 69.39944733 112.59986877 70.45039368 C112.59563892 73.68781372 112.62968412 76.92303103 112.671875 80.16015625 C112.70870112 83.40783515 112.73639024 86.65415473 112.73316956 89.90205383 C112.73140432 91.91664962 112.75252256 93.9314298 112.79942322 95.94548035 C112.79799875 100.65058666 112.79667498 102.74979695 109.82836914 106.56567383 C106.04414731 109.34765564 103.96475847 110.02917195 99.234375 109.47265625 C96.66151776 107.30002125 94.74440581 105.49271787 93.234375 102.47265625 C93.18176346 101.07504585 93.1920754 99.67478607 93.23535156 98.27685547 C93.25736633 97.40769501 93.2793811 96.53853455 93.30206299 95.64303589 C93.3261322 94.69735748 93.35020142 93.75167908 93.375 92.77734375 C93.4065456 89.70069984 93.42642642 86.62410614 93.44580078 83.54736328 C93.47121928 81.43891522 93.5179113 79.33060042 93.58740234 77.22314453 C93.9887979 64.32754809 93.38940855 55.36574953 84.3225708 45.64938354 C83.19623049 44.50162125 82.06106341 43.36244862 80.91687012 42.23248291 C78.03887713 39.22221041 75.65264435 35.85506188 73.234375 32.47265625 C72.5033255 31.45753464 72.5033255 31.45753464 71.75750732 30.42190552 C70.57722338 28.77637629 69.40489032 27.12514846 68.234375 25.47265625 C65.17870625 28.3847701 62.66547546 31.44517338 60.171875 34.84765625 C56.5945006 39.67502836 52.95005559 44.43841178 49.234375 49.16015625 C48.75347412 49.7722998 48.27257324 50.38444336 47.77709961 51.01513672 C44.37131382 55.33571743 44.37131382 55.33571743 43.234375 56.47265625 C43.13284056 57.91941294 43.09870099 59.370987 43.0925293 60.82128906 C43.08549484 61.74605042 43.07846039 62.67081177 43.07121277 63.62359619 C43.06704849 64.63081726 43.06288422 65.63803833 43.05859375 66.67578125 C43.03539069 68.79167656 43.01127316 70.90756201 42.98632812 73.0234375 C42.95122423 76.37229965 42.92188244 79.72080059 42.90844727 83.06982422 C42.89297138 86.29309331 42.85275479 89.51529421 42.80859375 92.73828125 C42.81050217 93.7374054 42.81241058 94.73652954 42.81437683 95.76593018 C42.7369664 100.16605703 42.6567893 102.77084075 40.35083008 106.60205078 C37.80929939 108.84835464 36.59473918 109.14888131 33.234375 109.09765625 C31.9659375 109.11699219 31.9659375 109.11699219 30.671875 109.13671875 C27.034501 108.1457675 26.17235618 106.70152481 24.234375 103.47265625 C23.73118509 100.01490277 23.86764784 96.61054215 23.9765625 93.125 C23.99131961 91.0540481 24.00428235 88.98308279 24.015625 86.91210938 C24.05475745 83.66827391 24.10892799 80.42674976 24.19628906 77.18383789 C25.00420985 62.10985349 25.00420985 62.10985349 18.36328125 49.21875 C16.68492819 47.60356979 14.97894222 46.01608144 13.234375 44.47265625 C12.21826922 43.20984226 11.22814143 41.92427337 10.296875 40.59765625 C8.01591994 37.48726299 5.6507639 34.45569921 3.25292969 31.43530273 C1.33917671 29.02000785 -0.55876716 26.59269067 -2.45117188 24.16064453 C-3.63960045 22.63449387 -4.8350169 21.11379102 -6.03125 19.59375 C-8.84573306 15.84682642 -10.61269394 13.32072847 -11.453125 8.66015625 C-9.95423474 1.71075598 -6.87415209 -0.43805871 0 0 Z " fill="#FCFEFD" transform="translate(57.765625,70.52734375)"/>
<path d="M0 0 C4.05566042 3.90518538 7.48892958 8.02474825 10.82592773 12.5750885 C13.03226722 15.54910939 15.2516021 18.32722035 17.89599609 20.92382812 C26.400045 29.6430221 27.30330871 37.43257908 27.17578125 49.33789062 C27.11983876 51.41283359 27.06121865 53.487706 27 55.5625 C26.95130884 58.69825893 26.91832099 61.83338871 26.8996582 64.96946716 C26.88358811 66.90632102 26.84792519 68.84314203 26.78979492 70.77919006 C26.70185904 75.67899457 26.7041789 79.05884678 30 83 C32.7798816 84.3899408 34.9186326 84.18488204 38 84 C41.0319432 82.87384967 42.7717721 81.29099488 45 79 C45.17015625 80.14597656 45.3403125 81.29195313 45.515625 82.47265625 C45.75968443 84.00272114 46.00451744 85.53266279 46.25 87.0625 C46.41435547 88.19075195 46.41435547 88.19075195 46.58203125 89.34179688 C47.46604022 94.71564087 49.19252285 98.35193617 52 103 C51.8447161 106.49388767 51.47932212 107.52067788 49 110 C43.03387784 109.38281495 38.93634668 105.13316402 35 101 C33.33613445 99.33053692 31.66909975 97.66423002 30 96 C7 73 7 73 4.32226562 70.29101562 C2.04469796 67.96489899 2.04469796 67.96489899 -0.5 66 C-3.2100065 63.8319948 -5.57721501 61.48335462 -8 59 C-8.86625 58.13375 -9.7325 57.2675 -10.625 56.375 C-11.40875 55.59125 -12.1925 54.8075 -13 54 C-13.598125 53.443125 -14.19625 52.88625 -14.8125 52.3125 C-16 51 -16 51 -16 49 C-16.66 49 -17.32 49 -18 49 C-18 48.34 -18 47.68 -18 47 C-18.66 47 -19.32 47 -20 47 C-20.99 45.68 -21.98 44.36 -23 43 C-23.33 54.22 -23.66 65.44 -24 77 C-24.33 77 -24.66 77 -25 77 C-25.24923402 70.81132751 -25.4295845 64.62563984 -25.54931641 58.43310547 C-25.59927363 56.33200134 -25.66726893 54.23123894 -25.75439453 52.13134766 C-26.54985285 32.45077299 -26.54985285 32.45077299 -20.46875 25.21875 C-18.66586347 23.45841608 -16.84340294 21.71785941 -15 20 C-13.54013435 18.18292298 -12.11867121 16.33415376 -10.7421875 14.453125 C-10.09765625 13.58945313 -9.453125 12.72578125 -8.7890625 11.8359375 C-8.15742187 10.98257813 -7.52578125 10.12921875 -6.875 9.25 C-6.2046875 8.35023437 -5.534375 7.45046875 -4.84375 6.5234375 C-3.22612118 4.35119308 -1.61156569 2.17674404 0 0 Z " fill="#70C39F" transform="translate(125,95)"/>
<path d="M0 0 C18.51494601 -1.08438946 35.32948631 7.68425049 48.984375 19.60546875 C59.16067287 29.34604116 71.20423279 44.27830668 72 59 C70.78515625 61.3359375 70.78515625 61.3359375 69.0625 63.375 C68.49660156 64.06335938 67.93070312 64.75171875 67.34765625 65.4609375 C66.90292969 65.96882813 66.45820313 66.47671875 66 67 C57.57111789 58.76505678 50.43040103 49.38092565 43.32421875 40.0078125 C38.1950549 32.69675541 38.1950549 32.69675541 30.3125 29.4375 C27.75762021 29.5060567 26.41104871 29.69727471 24.33984375 31.22265625 C22.40392654 33.38688802 20.71082518 35.65213051 19 38 C18.08399887 39.21372705 17.16586068 40.42584294 16.24609375 41.63671875 C14.18021113 44.36625279 12.12975184 47.10647423 10.08984375 49.85546875 C7.18248816 53.76763279 4.22772833 57.64122299 1.25 61.5 C0.60454224 62.33664185 0.60454224 62.33664185 -0.05395508 63.19018555 C-1.03514535 64.46076099 -2.01743312 65.73048881 -3 67 C-7.67296995 63.43378609 -10.12838074 60.90044524 -11 55 C-12.35071826 34.53866487 -9.37201539 18.1874978 0 0 Z " fill="#85C77C" transform="translate(95,42)"/>
</svg>
