<?xml version="1.0" encoding="UTF-8"?>
<svg version="1.1" xmlns="http://www.w3.org/2000/svg" width="253" height="210">
<path d="M0 0 C0.65871094 0.49371094 1.31742188 0.98742187 1.99609375 1.49609375 C15.76619805 12.16307596 25.5342064 31.80515862 27.7890625 48.77636719 C30.19044091 74.0908979 25.76212095 96.62784013 9.80532837 116.86431885 C2.92980734 124.99797527 -5.0015697 132.26731675 -12.625 139.6875 C-15.40540334 142.39938591 -18.18235838 145.11444112 -20.95004272 147.83930969 C-22.65876475 149.52121648 -24.37458932 151.19595282 -26.09902954 152.86174011 C-34.11032364 160.73946656 -40.96253668 168.6417148 -43.8203125 179.6875 C-45.54039453 183.05931642 -47.51629032 183.60319869 -51 185 C-53.8110984 185.27485842 -56.39316873 185.40109611 -59.19824219 185.37231445 C-59.99925858 185.37596512 -60.80027496 185.37961578 -61.62556458 185.38337708 C-64.26621939 185.39146063 -66.90625554 185.37787633 -69.546875 185.36328125 C-71.40089925 185.36276177 -73.25492405 185.36328287 -75.10894775 185.36479187 C-78.99931039 185.3647022 -82.88946561 185.35429552 -86.77978516 185.33618164 C-91.71482595 185.31368498 -96.64955894 185.31291649 -101.58463669 185.31969929 C-105.41990793 185.32307993 -109.25511183 185.31633015 -113.09037018 185.30657005 C-114.90644221 185.30277342 -116.72252182 185.30154627 -118.53859711 185.3031559 C-127.6483591 185.30450404 -136.66373522 185.09722589 -145.72753906 184.12573242 C-146.43735806 184.05104138 -147.14717705 183.97635035 -147.87850571 183.89939594 C-165.82175239 181.75315045 -179.83857454 173.96286861 -193 162 C-193.70511719 161.36707031 -194.41023438 160.73414063 -195.13671875 160.08203125 C-210.44354636 145.60074041 -217.69171026 125.70585366 -219.3046875 105.109375 C-219.76830047 82.13477695 -212.68275463 60.89118606 -197 44 C-196.2678125 43.19949219 -195.535625 42.39898437 -194.78125 41.57421875 C-181.39886006 27.55569408 -163.23583991 19.16601916 -144 17 C-142.4804415 16.99261617 -140.96069242 17.00545616 -139.44140625 17.03515625 C-130.32121406 17.40856044 -130.32121406 17.40856044 -122.23046875 13.95703125 C-120.26547695 11.39517803 -118.62435187 8.7875706 -117 6 C-105.21870209 -8.3796794 -86.01292662 -17.07836311 -68 -20 C-67.06285156 -20.15339844 -66.12570313 -20.30679687 -65.16015625 -20.46484375 C-41.56260601 -23.3457518 -17.66878838 -15.61651532 0 0 Z " fill="#ABCF39" transform="translate(222,22)"/>
<path d="M0 0 C0 3.7262864 -1.53154878 5.39104441 -3.49609375 8.44140625 C-11.61930236 22.26141051 -13.34829444 35.43044798 -13.125 51.25 C-13.11597656 52.48363281 -13.10695313 53.71726563 -13.09765625 54.98828125 C-13.07436851 57.99240024 -13.04166756 60.99608943 -13 64 C-16.2138736 60.8494498 -18.98799718 57.53044017 -21.6875 53.9375 C-28.79399827 43.1595913 -28.79399827 43.1595913 -38 35 C-43.88281936 34.28917328 -43.88281936 34.28917328 -49.0625 36.5625 C-50.47926166 40.24608031 -50.69443299 42.02279289 -50 46 C-47.69258396 49.94824522 -44.85772926 53.43806083 -42 57 C-41.16889169 58.06118543 -40.33949928 59.12371669 -39.51171875 60.1875 C-37.71476855 62.49164572 -35.90786194 64.78746929 -34.09375 67.078125 C-29.86086029 72.43050265 -25.68686508 77.82883412 -21.50732422 83.22290039 C-20.9351416 83.96016357 -20.36295898 84.69742676 -19.7734375 85.45703125 C-19.00652588 86.4466687 -19.00652588 86.4466687 -18.22412109 87.45629883 C-17.08573433 88.9524992 -17.08573433 88.9524992 -16 90 C-15.89326894 91.45186576 -15.85380751 92.90876402 -15.84228516 94.36450195 C-15.83202301 95.292491 -15.82176086 96.22048004 -15.81118774 97.17658997 C-15.80388641 98.18694809 -15.79658508 99.19730621 -15.7890625 100.23828125 C-15.76099131 102.35873164 -15.73232683 104.47917425 -15.703125 106.59960938 C-15.66185131 109.95727298 -15.62498202 113.31479164 -15.59863281 116.67260742 C-15.57105595 119.90314135 -15.52517826 123.13300468 -15.4765625 126.36328125 C-15.47330963 127.36756668 -15.47005676 128.37185211 -15.46670532 129.40657043 C-15.45013885 130.34401596 -15.43357239 131.28146149 -15.41650391 132.24731445 C-15.40841705 133.07036575 -15.4003302 133.89341705 -15.39199829 134.7414093 C-14.90620577 137.54041762 -13.92258957 138.93460408 -12 141 C-9.643472 141.70573579 -9.643472 141.70573579 -7.0625 141.625 C-5.78052734 141.67527344 -5.78052734 141.67527344 -4.47265625 141.7265625 C-1.74809703 141.17447291 -1.74809703 141.17447291 0.11645508 138.46972656 C2.29796735 134.45110669 2.60191782 131.21653558 2.609375 126.7578125 C2.62591125 125.98944061 2.64244751 125.22106873 2.65948486 124.42941284 C2.70775935 121.99452561 2.72928871 119.56026189 2.75 117.125 C2.77817708 115.46611481 2.80810694 113.80725841 2.83984375 112.1484375 C2.91351198 108.09900973 2.96321134 104.04992391 3 100 C5 101.375 5 101.375 7 103 C7 103.66 7 104.32 7 105 C7.66 105 8.32 105 9 105 C9 105.66 9 106.32 9 107 C9.66 107 10.32 107 11 107 C12.36176922 108.64351457 13.68962066 110.31522656 15 112 C16.6454378 113.68762851 18.31288577 115.3540349 20 117 C20.804375 117.825 21.60875 118.65 22.4375 119.5 C25.0074975 122.07253019 25.0074975 122.07253019 28 124.5 C30.84799547 126.87332956 33.39669538 129.36353998 36 132 C36.81186768 132.81710449 37.62373535 133.63420898 38.46020508 134.47607422 C39.30478271 135.3270166 40.14936035 136.17795898 41.01953125 137.0546875 C42.45834458 138.50088274 43.89764481 139.94659145 45.3371582 141.39208984 C46.31625767 142.376212 47.29445695 143.36123062 48.27172852 144.34716797 C53.50296056 149.62335247 58.75565977 154.82128172 64.41748047 159.64013672 C66.3832471 161.32932526 68.20153387 163.13492401 70 165 C70.9987842 166.00121433 71.99859846 167.00140351 73 168 C59.84689503 168.11637907 46.69391464 168.20496032 33.54039764 168.25906086 C27.43120502 168.28503996 21.32236733 168.32022288 15.21337891 168.37719727 C9.3064785 168.43193569 3.39991727 168.46150818 -2.50721741 168.47438622 C-4.74924552 168.48355149 -6.99125724 168.50144691 -9.23313904 168.52865028 C-22.46013724 168.68261524 -33.64753582 168.02029142 -46 163 C-46.94887085 162.62116165 -47.8977417 162.2423233 -48.87536621 161.852005 C-56.65773187 158.56352307 -62.82034343 152.61690068 -69 147 C-69.70511719 146.36707031 -70.41023438 145.73414063 -71.13671875 145.08203125 C-86.44354636 130.60074041 -93.69171026 110.70585366 -95.3046875 90.109375 C-95.76830047 67.13477695 -88.68275463 45.89118606 -73 29 C-72.2678125 28.19949219 -71.535625 27.39898437 -70.78125 26.57421875 C-53.71488973 8.69660544 -31.58481246 2.36222461 -7.5 1.39453125 C-6.67757812 1.35714844 -5.85515625 1.31976563 -5.0078125 1.28125 C-4.26160645 1.25095703 -3.51540039 1.22066406 -2.74658203 1.18945312 C-0.9727163 1.18162634 -0.9727163 1.18162634 0 0 Z " fill="#22B9DE" transform="translate(98,37)"/>
<path d="M0 0 C7.02821818 1.48673846 11.21538342 9.0903944 15.234375 14.47265625 C16.33529294 15.89184904 17.43947693 17.30851411 18.546875 18.72265625 C20.66051614 21.43195989 22.75437796 24.15465326 24.828125 26.89453125 C25.27760498 27.48588867 25.72708496 28.07724609 26.19018555 28.68652344 C27.08289838 29.86181354 27.97247706 31.03949197 28.85864258 32.21972656 C31.12964634 35.31731577 31.12964634 35.31731577 34.234375 37.47265625 C34.72164062 36.81523438 35.20890625 36.1578125 35.7109375 35.48046875 C40.54879326 28.98894593 45.45979947 22.55727087 50.421875 16.16015625 C51.00340332 15.40814941 51.58493164 14.65614258 52.18408203 13.88134766 C53.85400617 11.73403116 55.54016302 9.60084367 57.234375 7.47265625 C57.76885254 6.78864746 58.30333008 6.10463867 58.85400391 5.39990234 C59.36753418 4.7652002 59.88106445 4.13049805 60.41015625 3.4765625 C60.85915283 2.91396729 61.30814941 2.35137207 61.77075195 1.77172852 C64.01600099 -0.22109386 66.19386378 -0.28601468 69.109375 -0.26171875 C74.77037186 1.69465517 78.47850655 6.77417802 81.921875 11.41015625 C82.78315743 12.5552119 83.64516394 13.6997232 84.5078125 14.84375 C84.95092773 15.43526855 85.39404297 16.02678711 85.85058594 16.63623047 C88.21555794 19.77478365 90.62779647 22.87572446 93.046875 25.97265625 C93.7123938 26.83491821 93.7123938 26.83491821 94.39135742 27.71459961 C97.13317634 31.22464272 100.02428453 34.38359253 103.234375 37.47265625 C109.83822825 29.12189192 116.36952018 20.7204177 122.81713867 12.24829102 C130.89507797 1.64230477 130.89507797 1.64230477 133.234375 0.47265625 C137.41581511 0.07818077 139.54383548 0.02230439 143.109375 2.34765625 C145.48710442 4.72538567 146.11123805 5.75142557 146.671875 9.03515625 C145.57409707 17.66055427 137.40626369 25.18064155 132.11328125 31.83984375 C129.34996212 35.31750929 126.62777445 38.82519592 123.921875 42.34765625 C123.16261719 43.33507812 122.40335938 44.3225 121.62109375 45.33984375 C120.83347656 46.37367187 120.04585937 47.4075 119.234375 48.47265625 C118.73163055 49.02481308 118.22888611 49.57696991 117.71090698 50.14585876 C112.88374446 55.75133079 112.42086205 60.12467561 112.60546875 67.359375 C112.60362076 68.37941116 112.60177277 69.39944733 112.59986877 70.45039368 C112.59563892 73.68781372 112.62968412 76.92303103 112.671875 80.16015625 C112.70870112 83.40783515 112.73639024 86.65415473 112.73316956 89.90205383 C112.73140432 91.91664962 112.75252256 93.9314298 112.79942322 95.94548035 C112.79799875 100.65058666 112.79667498 102.74979695 109.82836914 106.56567383 C106.04414731 109.34765564 103.96475847 110.02917195 99.234375 109.47265625 C96.66151776 107.30002125 94.74440581 105.49271787 93.234375 102.47265625 C93.18176346 101.07504585 93.1920754 99.67478607 93.23535156 98.27685547 C93.25736633 97.40769501 93.2793811 96.53853455 93.30206299 95.64303589 C93.3261322 94.69735748 93.35020142 93.75167908 93.375 92.77734375 C93.4065456 89.70069984 93.42642642 86.62410614 93.44580078 83.54736328 C93.47121928 81.43891522 93.5179113 79.33060042 93.58740234 77.22314453 C93.9887979 64.32754809 93.38940855 55.36574953 84.3225708 45.64938354 C83.19623049 44.50162125 82.06106341 43.36244862 80.91687012 42.23248291 C78.03887713 39.22221041 75.65264435 35.85506188 73.234375 32.47265625 C72.5033255 31.45753464 72.5033255 31.45753464 71.75750732 30.42190552 C70.57722338 28.77637629 69.40489032 27.12514846 68.234375 25.47265625 C65.17870625 28.3847701 62.66547546 31.44517338 60.171875 34.84765625 C56.5945006 39.67502836 52.95005559 44.43841178 49.234375 49.16015625 C48.75347412 49.7722998 48.27257324 50.38444336 47.77709961 51.01513672 C44.37131382 55.33571743 44.37131382 55.33571743 43.234375 56.47265625 C43.13284056 57.91941294 43.09870099 59.370987 43.0925293 60.82128906 C43.08549484 61.74605042 43.07846039 62.67081177 43.07121277 63.62359619 C43.06704849 64.63081726 43.06288422 65.63803833 43.05859375 66.67578125 C43.03539069 68.79167656 43.01127316 70.90756201 42.98632812 73.0234375 C42.95122423 76.37229965 42.92188244 79.72080059 42.90844727 83.06982422 C42.89297138 86.29309331 42.85275479 89.51529421 42.80859375 92.73828125 C42.81050217 93.7374054 42.81241058 94.73652954 42.81437683 95.76593018 C42.7369664 100.16605703 42.6567893 102.77084075 40.35083008 106.60205078 C37.80929939 108.84835464 36.59473918 109.14888131 33.234375 109.09765625 C31.9659375 109.11699219 31.9659375 109.11699219 30.671875 109.13671875 C27.034501 108.1457675 26.17235618 106.70152481 24.234375 103.47265625 C23.73118509 100.01490277 23.86764784 96.61054215 23.9765625 93.125 C23.99131961 91.0540481 24.00428235 88.98308279 24.015625 86.91210938 C24.05475745 83.66827391 24.10892799 80.42674976 24.19628906 77.18383789 C25.00420985 62.10985349 25.00420985 62.10985349 18.36328125 49.21875 C16.68492819 47.60356979 14.97894222 46.01608144 13.234375 44.47265625 C12.21826922 43.20984226 11.22814143 41.92427337 10.296875 40.59765625 C8.01591994 37.48726299 5.6507639 34.45569921 3.25292969 31.43530273 C1.33917671 29.02000785 -0.55876716 26.59269067 -2.45117188 24.16064453 C-3.63960045 22.63449387 -4.8350169 21.11379102 -6.03125 19.59375 C-8.84573306 15.84682642 -10.61269394 13.32072847 -11.453125 8.66015625 C-9.95423474 1.71075598 -6.87415209 -0.43805871 0 0 Z " fill="#FCFEFD" transform="translate(57.765625,70.52734375)"/>
<path d="M0 0 C4.05566042 3.90518538 7.48892958 8.02474825 10.82592773 12.5750885 C13.03226722 15.54910939 15.2516021 18.32722035 17.89599609 20.92382812 C26.400045 29.6430221 27.30330871 37.43257908 27.17578125 49.33789062 C27.11983876 51.41283359 27.06121865 53.487706 27 55.5625 C26.95130884 58.69825893 26.91832099 61.83338871 26.8996582 64.96946716 C26.88358811 66.90632102 26.84792519 68.84314203 26.78979492 70.77919006 C26.70185904 75.67899457 26.7041789 79.05884678 30 83 C32.7798816 84.3899408 34.9186326 84.18488204 38 84 C41.0319432 82.87384967 42.7717721 81.29099488 45 79 C45.17015625 80.15757812 45.3403125 81.31515625 45.515625 82.5078125 C45.75964221 84.04699798 46.00447736 85.58605394 46.25 87.125 C46.41435547 88.26582031 46.41435547 88.26582031 46.58203125 89.4296875 C47.42541041 94.57873922 48.80288028 97.86488235 52 102 C52.66 101.34 53.32 100.68 54 100 C53.82467486 101.4418981 53.60822882 102.87882872 53.375 104.3125 C53.20097656 105.51326172 53.20097656 105.51326172 53.0234375 106.73828125 C51.48019348 110.14873274 49.43060147 110.62897742 46 112 C43.152129 112.27012238 40.53206408 112.39108049 37.69067383 112.35644531 C36.47228317 112.35951187 36.47228317 112.35951187 35.22927856 112.36264038 C32.55496387 112.36563798 29.88127234 112.34719278 27.20703125 112.328125 C25.33623914 112.32506369 23.46544474 112.3231904 21.59465027 112.32244873 C17.67490904 112.31785102 13.75537384 112.30345197 9.83569336 112.28125 C4.83724654 112.25306632 -0.16103766 112.24204696 -5.15955639 112.2375679 C-9.95404766 112.23238175 -14.7484991 112.21785648 -19.54296875 112.203125 C-20.44576254 112.20124428 -21.34855633 112.19936356 -22.2787075 112.19742584 C-31.56342822 112.17245431 -40.76851137 112.1342756 -50 111 C-50 110.67 -50 110.34 -50 110 C-18.65 109.67 12.7 109.34 45 109 C43.35 108.01 41.7 107.02 40 106 C38.29115995 104.37660195 36.62553283 102.70680947 35 101 C33.33613445 99.33053692 31.66909975 97.66423002 30 96 C7 73 7 73 4.32226562 70.29101562 C2.04469796 67.96489899 2.04469796 67.96489899 -0.5 66 C-3.2100065 63.8319948 -5.57721501 61.48335462 -8 59 C-8.86625 58.13375 -9.7325 57.2675 -10.625 56.375 C-11.40875 55.59125 -12.1925 54.8075 -13 54 C-13.598125 53.443125 -14.19625 52.88625 -14.8125 52.3125 C-16 51 -16 51 -16 49 C-16.66 49 -17.32 49 -18 49 C-18 48.34 -18 47.68 -18 47 C-18.66 47 -19.32 47 -20 47 C-20.99 45.68 -21.98 44.36 -23 43 C-23.33 54.22 -23.66 65.44 -24 77 C-24.33 77 -24.66 77 -25 77 C-25.24923402 70.81132751 -25.4295845 64.62563984 -25.54931641 58.43310547 C-25.59927363 56.33200134 -25.66726893 54.23123894 -25.75439453 52.13134766 C-26.54985285 32.45077299 -26.54985285 32.45077299 -20.46875 25.21875 C-18.66586347 23.45841608 -16.84340294 21.71785941 -15 20 C-13.54013435 18.18292298 -12.11867121 16.33415376 -10.7421875 14.453125 C-10.09765625 13.58945313 -9.453125 12.72578125 -8.7890625 11.8359375 C-8.15742187 10.98257813 -7.52578125 10.12921875 -6.875 9.25 C-5.86953125 7.90035156 -5.86953125 7.90035156 -4.84375 6.5234375 C-3.22612118 4.35119308 -1.61156569 2.17674404 0 0 Z " fill="#74C5A4" transform="translate(125,95)"/>
<path d="M0 0 C18.51494601 -1.08438946 35.32948631 7.68425049 48.984375 19.60546875 C59.16067287 29.34604116 71.20423279 44.27830668 72 59 C70.78515625 61.3359375 70.78515625 61.3359375 69.0625 63.375 C68.49660156 64.06335938 67.93070312 64.75171875 67.34765625 65.4609375 C66.90292969 65.96882813 66.45820313 66.47671875 66 67 C57.57111789 58.76505678 50.43040103 49.38092565 43.32421875 40.0078125 C38.1950549 32.69675541 38.1950549 32.69675541 30.3125 29.4375 C27.75762021 29.5060567 26.41104871 29.69727471 24.33984375 31.22265625 C22.40392654 33.38688802 20.71082518 35.65213051 19 38 C18.08399887 39.21372705 17.16586068 40.42584294 16.24609375 41.63671875 C14.18021113 44.36625279 12.12975184 47.10647423 10.08984375 49.85546875 C7.18248816 53.76763279 4.22772833 57.64122299 1.25 61.5 C0.60454224 62.33664185 0.60454224 62.33664185 -0.05395508 63.19018555 C-1.03514535 64.46076099 -2.01743312 65.73048881 -3 67 C-7.67296995 63.43378609 -10.12838074 60.90044524 -11 55 C-12.35071826 34.53866487 -9.37201539 18.1874978 0 0 Z " fill="#85C77C" transform="translate(95,42)"/>
<path d="M0 0 C0.66 0.33 1.32 0.66 2 1 C-0.28356246 3.34138543 -2.57813374 5.67166982 -4.875 8 C-5.85146484 9.00160156 -5.85146484 9.00160156 -6.84765625 10.0234375 C-7.47285156 10.65507812 -8.09804687 11.28671875 -8.7421875 11.9375 C-9.3182373 12.52402344 -9.89428711 13.11054688 -10.48779297 13.71484375 C-12 15 -12 15 -14 15 C-12.55053895 11.66026243 -10.71827612 9.47695341 -8.125 6.9375 C-7.44695312 6.26589844 -6.76890625 5.59429687 -6.0703125 4.90234375 C-4.1292063 3.11872353 -2.1380399 1.53881347 0 0 Z " fill="#D1E492" transform="translate(116,18)"/>
<path d="M0 0 C0.66 0.33 1.32 0.66 2 1 C-6.2095968 10.5344885 -6.2095968 10.5344885 -10 14 C-10.66 14 -11.32 14 -12 14 C-10.41332422 10.09714233 -7.86649519 7.66479018 -4.875 4.75 C-3.96492188 3.85796875 -3.05484375 2.9659375 -2.1171875 2.046875 C-1.41851562 1.37140625 -0.71984375 0.6959375 0 0 Z " fill="#7ED6EC" transform="translate(34,57)"/>
</svg>
